<svg width="48" height="48" viewBox="0 0 48 48" xmlns="http://www.w3.org/2000/svg">
<path fill-rule="evenodd" clip-rule="evenodd" d="M5 13.9996H13L5 6.0006V13.9996Z"/>
<path d="M25 22.5585L35.6325 26.1026L34.3675 29.8974L21 25.4415V16H25V22.5585Z"/>
<path d="M10.2715 11.2717L7.44328 8.44309C16.0353 -0.147851 29.9656 -0.14785 38.5567 8.44327C47.1476 17.0353 47.1476 30.9656 38.5566 39.5566C29.9656 48.1476 16.0353 48.1476 7.44328 39.5567L10.2715 36.7281C17.3015 43.7571 28.6992 43.7571 35.7282 36.7282C42.7572 29.6992 42.7572 18.3015 35.7282 11.2716C28.6992 4.24264 17.3015 4.24264 10.2715 11.2717Z"/>
</svg>
