<svg width="48" height="48" viewBox="0 0 48 48" xmlns="http://www.w3.org/2000/svg">
<path fill-rule="evenodd" clip-rule="evenodd" d="M24.5 46C36.3744 46 46 36.3744 46 24.5C46 12.6256 36.3744 3 24.5 3C12.6256 3 3 12.6256 3 24.5C3 36.3744 12.6256 46 24.5 46ZM24.5 6C34.7176 6 43 14.2824 43 24.5C43 34.7176 34.7176 43 24.5 43C14.2824 43 6 34.7176 6 24.5C6 14.2824 14.2824 6 24.5 6Z"/>
<path d="M15.8431 23.7606V34.7969H6.5801V30.7969H11.8431V14.1032L25.0662 27.3275L38.6211 13.7738V30.7969H42.8931V34.7969H34.6211V23.43L25.066 32.9843L15.8431 23.7606Z"/>
</svg>
