<svg width="49" height="48" viewBox="0 0 49 48" version="1.1" xmlns="http://www.w3.org/2000/svg" xmlns:xlink="http://www.w3.org/1999/xlink">
<title>setting</title>
<desc>Created using Figma</desc>
<g id="Canvas" transform="translate(-107 -204)">
<g id="icn/setting">
<g id="Page 1">
<g id="Stroke 1">
<use xlink:href="#path0_fill" transform="translate(122.004 218.999)"/>
</g>
<g id="Stroke 3">
<use xlink:href="#path1_fill" transform="translate(107 204)"/>
</g>
</g>
</g>
</g>
<defs>
<path id="path0_fill" fill-rule="evenodd" d="M 9 0C 4.02943 0 0 4.02942 0 9C 0 13.9706 4.02943 18 9 18C 13.9706 18 18 13.9706 18 9C 18 4.02942 13.9706 0 9 0ZM 9 14C 6.23857 14 4 11.7614 4 9C 4 6.23856 6.23857 4 9 4C 11.7614 4 14 6.23856 14 9C 14 11.7614 11.7614 14 9 14Z"/>
<path id="path1_fill" fill-rule="evenodd" d="M 11.265 2.77356L 2.78357 11.255L 7.74828 16.2197C 7.47113 16.7971 7.22555 17.3893 7.01283 17.994L 0 17.994L 0 29.994L 7.01317 29.994C 7.2244 30.5961 7.46712 31.1845 7.74037 31.7567L 2.78339 36.7116L 11.2647 45.1944L 16.2174 40.2428C 16.7971 40.5222 17.3934 40.7698 18.003 40.9842L 18.003 47.998L 30.003 47.998L 30.003 40.9859C 30.6111 40.7731 31.2041 40.528 31.78 40.2514L 36.7231 45.1945L 45.2045 36.7117L 40.1553 31.6637L 40.8472 29.994L 48.007 29.994L 48.007 17.994L 40.994 17.994C 40.7796 17.3852 40.5317 16.7894 40.2513 16.2081L 45.2044 11.255L 36.7228 2.77341L 31.7574 7.73993C 31.1867 7.46667 30.6014 7.2244 30.003 7.01376L 30.003 0L 18.003 0L 18.003 7.01547C 17.4029 7.22769 16.8143 7.47247 16.2398 7.74841L 11.265 2.77356ZM 12.7245 15.5391L 8.44043 11.255L 11.265 8.43042L 15.5584 12.7239L 16.8946 11.931C 18.0229 11.2614 19.2365 10.7556 20.4974 10.4339L 22.003 10.0498L 22.003 4L 26.003 4L 26.003 10.0501L 27.5089 10.434C 28.7808 10.7583 29.9834 11.257 31.103 11.9217L 32.4394 12.7152L 36.7232 8.43057L 39.5476 11.255L 35.2694 15.5331L 36.0694 16.8712C 36.7448 18.0011 37.2497 19.2123 37.5723 20.4853L 37.9546 21.994L 44.007 21.994L 44.007 25.994L 38.1748 25.994L 35.4367 32.6023L 39.5475 36.7123L 36.7229 39.5374L 32.452 35.2665L 31.1124 36.072C 30.0091 36.7354 28.8012 37.2355 27.5117 37.5623L 26.003 37.9446L 26.003 43.998L 22.003 43.998L 22.003 37.9448L 20.4946 37.5623C 19.217 37.2384 17.9983 36.7311 16.8846 36.0624L 15.5455 35.2583L 11.2653 39.5376L 8.44061 36.7124L 12.716 32.4389L 11.9211 31.102C 11.2616 29.9926 10.7609 28.7803 10.4338 27.4993L 10.0496 25.994L 4 25.994L 4 21.994L 10.0524 21.994L 10.4347 20.4853C 10.7564 19.2158 11.2608 18.0025 11.9304 16.8756L 12.7245 15.5391Z"/>
</defs>
</svg>
