<svg width="48" height="48" viewBox="0 0 48 48" xmlns="http://www.w3.org/2000/svg">
<path fill-rule="evenodd" clip-rule="evenodd" d="M24.0036 14.9985C19.033 14.9985 15.0036 19.0279 15.0036 23.9985C15.0036 28.9691 19.033 32.9985 24.0036 32.9985C28.9742 32.9985 33.0036 28.9691 33.0036 23.9985C33.0036 19.0279 28.9742 14.9985 24.0036 14.9985ZM24.0036 28.9985C21.2422 28.9985 19.0036 26.7599 19.0036 23.9985C19.0036 21.2371 21.2422 18.9985 24.0036 18.9985C26.765 18.9985 29.0036 21.2371 29.0036 23.9985C29.0036 26.7599 26.765 28.9985 24.0036 28.9985Z"/>
<path fill-rule="evenodd" clip-rule="evenodd" d="M11.2636 2.77357L2.78336 11.255L7.74734 16.2197C7.47024 16.7972 7.22469 17.3893 7.012 17.994H0.000198364V29.994H7.01234C7.22355 30.5961 7.46623 31.1845 7.73943 31.7567L2.78318 36.7116L11.2633 45.1944L16.2153 40.2428C16.7949 40.5222 17.391 40.7698 18.0006 40.9842V47.998H29.9988V40.9859C30.6069 40.7731 31.1998 40.5281 31.7755 40.2514L36.718 45.1945L45.1981 36.7117L40.1497 31.6637L40.8414 29.994H48.0002V17.994H40.9882C40.7738 17.3852 40.526 16.7894 40.2456 16.2081L45.198 11.255L36.7177 2.77342L31.753 7.73993C31.1823 7.46667 30.5972 7.22438 29.9988 7.01378V0H18.0006V7.01546C17.4005 7.22768 16.812 7.47249 16.2377 7.7484L11.2636 2.77357ZM12.7235 15.5391L8.43998 11.255L11.2641 8.43042L15.557 12.7239L16.893 11.931C18.0211 11.2614 19.2345 10.7556 20.4952 10.4339L22.0006 10.0498V4H26V10.0501L27.5057 10.434C28.7774 10.7583 29.9798 11.257 31.0992 11.9217L32.4355 12.7152L36.7186 8.43059L39.5426 11.255L35.2651 15.5331L36.0649 16.8712C36.7402 18.0011 37.2451 19.2123 37.5676 20.4852L37.9498 21.994H44.0014V25.994H38.17L35.4323 32.6023L39.5426 36.7123L36.7183 39.5374L32.448 35.2666L31.1087 36.072C30.0055 36.7353 28.7978 37.2355 27.5085 37.5623L26 37.9446V43.998H22.0006V37.9448L20.4924 37.5623C19.2149 37.2384 17.9964 36.7311 16.8829 36.0624L15.544 35.2583L11.2644 39.5376L8.44016 36.7124L12.7149 32.4389L11.9202 31.102C11.2607 29.9926 10.7601 28.7803 10.4331 27.4993L10.0489 25.994H4.0002V21.994H10.0518L10.434 20.4852C10.7556 19.2158 11.2599 18.0025 11.9294 16.8756L12.7235 15.5391Z"/>
</svg>
