<?xml version="1.0" encoding="utf-8"?>
<!-- Generator: Adobe Illustrator 18.0.0, SVG Export Plug-In . SVG Version: 6.00 Build 0)  -->
<!DOCTYPE svg PUBLIC "-//W3C//DTD SVG 1.1//EN" "http://www.w3.org/Graphics/SVG/1.1/DTD/svg11.dtd">
<svg version="1.1" id="Calque_1" xmlns="http://www.w3.org/2000/svg" xmlns:xlink="http://www.w3.org/1999/xlink" x="0px" y="0px"
	 viewBox="45.5 491 742.6 208.3" enable-background="new 45.5 491 742.6 208.3" xml:space="preserve">
<g>
	<path id="path22_3_" fill="#F26822" d="M142.9,491c-53.8,0-97.4,43.6-97.4,97.4c0,10.8,1.7,21.2,5,30.9h29.2v-82l63.5,63.5
		l63.5-63.5v82h29.2c3.3-9.7,5-20.1,5-30.9C240.6,534.6,196.7,491,142.9,491"/>
	<path id="path26_3_" fill="#4D4D4D" d="M100.7,587.5v51.6H59.6c17.1,28.1,48,46.9,83.3,46.9s66.2-18.8,83.3-46.9h-41.1v-51.6
		l-42.2,42.2L100.7,587.5z"/>
	<path id="path30_5_" fill="#4D4D4D" d="M764.9,616.2c-5.2,5.2-11.3,8-18.8,8c-6.6,0-12.1-1.9-17.4-6.1c-6.3-5.2-9.7-12.4-9.7-21.2
		c0-8,2.5-14.6,7.7-19.9c5.2-5.3,11.3-7.7,19-7.7c7.5,0,13.8,2.8,19,8c5.2,5.2,7.7,11.9,7.7,19.6C772.6,604.4,770.1,611,764.9,616.2
		 M775.7,566.3c-8.3-8.3-18.2-12.4-29.8-12.4c-7.7,0-14.6,1.9-21.2,5.8c-6.6,3.9-11.9,9.1-15.5,15.5c-3.9,6.6-5.5,13.8-5.5,21.5
		c0,11.6,4.1,21.5,12.1,30.1c8,8.6,18.2,12.7,30.4,12.7c11.6,0,21.5-4.1,29.8-12.4c8.3-8.3,12.1-18.2,12.1-30.1
		C788.1,584.8,783.9,574.6,775.7,566.3"/>
	<path id="path34_2_" fill="#4D4D4D" d="M674.1,585.1c-1.9,1.4-2.8,1.9-8,1.9h-20.4v-17.4h19.9c3.9,0,4.7,0.3,6.3,0.8
		c1.7,0.6,3,1.7,3.9,3c1.1,1.4,1.4,3,1.4,5C676.9,581.5,676.1,583.7,674.1,585.1 M676.3,601.1c5.5-1.9,9.4-4.7,12.1-8.6
		c2.7-3.9,4.1-8.6,4.1-14.1c0-5.2-1.1-9.9-3.6-13.8s-5.8-6.6-9.7-8.3c-4.1-1.7-10.8-2.5-20.1-2.5H629v85.5h16.3V603h14.1l19.3,36.1
		h17.7L676.3,601.1L676.3,601.1z"/>
	<path id="path38_2_" fill="#4D4D4D" d="M556.3,553.6h55.5v16h-39.2V587h39.2v15.7h-39.2v20.4h39.2v16h-55.5V553.6z"/>
	<path id="path42_2_" fill="#4D4D4D" d="M470.5,553.6H486l36.7,56.3v-56.3H539v85.5h-15.7l-36.7-56v56h-16.3v-85.5H470.5z"/>
	<g id="use46_2_" transform="translate(-125.0586,0)">
		<path id="path30_1_" fill="#4D4D4D" d="M560.9,616.2c-5.2,5.2-11.3,8-18.8,8c-6.6,0-12.1-1.9-17.4-6.1c-6.3-5.2-9.7-12.4-9.7-21.2
			c0-8,2.5-14.6,7.7-19.9c5.2-5.3,11.3-7.7,19-7.7c7.5,0,13.8,2.8,19,8c5.2,5.2,7.7,11.9,7.7,19.6
			C568.6,604.4,565.8,611,560.9,616.2 M571.6,566.3c-8.3-8.3-18.2-12.4-29.8-12.4c-7.7,0-14.6,1.9-21.2,5.8
			c-6.6,3.9-11.9,9.1-15.5,15.5c-3.9,6.6-5.5,13.8-5.5,21.5c0,11.6,4.1,21.5,12.1,30.1c8,8.6,18.2,12.7,30.4,12.7
			c11.6,0,21.5-4.1,29.8-12.4c8.3-8.3,12.1-18.2,12.1-30.1C584,584.8,579.9,574.6,571.6,566.3"/>
	</g>
	<path id="path50_2_" fill="#4D4D4D" d="M281.5,553.6h16l19.9,59.6l20.1-59.6h15.7l14.3,85.5h-15.7l-9.1-54.1l-18.5,54.1h-14.3
		L292,585l-9.4,54.1h-15.7L281.5,553.6z"/>
</g>
<g>
	<path fill="#4D4D4D" d="M480.7,699h-4.4l-3-8.6H460l-3,8.6h-4.1l11.3-30.6h5.5L480.7,699z M472.1,686.9l-5.5-15.2l-5.5,15.2H472.1z
		"/>
	<path fill="#4D4D4D" d="M506.9,696.8c-0.8,0.3-1.4,0.6-1.9,0.8c-0.6,0.3-1.4,0.6-2.5,0.8c-0.8,0.3-1.7,0.6-2.8,0.6
		c-1.1,0-1.9,0.3-3.3,0.3c-2.2,0-4.1-0.3-6.1-0.8c-1.9-0.6-3.3-1.7-4.7-3s-2.5-3-3-5c-0.5-2-1.1-4.4-1.1-6.9s0.3-4.7,1.1-6.9
		c0.8-1.9,1.7-3.6,3-5c1.3-1.4,2.8-2.5,4.7-3c1.9-0.8,3.9-1.1,6.1-1.1c1.7,0,3.3,0.3,5,0.6c1.7,0.3,3.6,1.1,5.5,2.2v5h-0.3
		c-1.7-1.4-3.3-2.5-5-3c-1.7-0.6-3.3-1.1-5.2-1.1c-1.7,0-3,0.3-4.1,0.8c-1.1,0.5-2.5,1.4-3.3,2.2c-0.8,1.1-1.7,2.2-2.2,3.9
		c-0.6,1.7-0.8,3.3-0.8,5.5c0,2.2,0.3,4.1,0.8,5.5c0.6,1.4,1.4,2.8,2.2,3.9c0.8,1.1,2.2,1.7,3.3,2.2c1.4,0.6,2.8,0.8,4.1,0.8
		c1.9,0,3.9-0.3,5.5-1.1c1.7-0.6,3.3-1.7,5-3h0.3v5h-0.3V696.8z"/>
	<path fill="#4D4D4D" d="M533.9,696.8c-0.8,0.3-1.4,0.6-1.9,0.8c-0.6,0.3-1.4,0.6-2.5,0.8c-0.8,0.3-1.7,0.6-2.8,0.6
		c-1.1,0-1.9,0.3-3.3,0.3c-2.2,0-4.1-0.3-6.1-0.8s-3.3-1.7-4.7-3c-1.4-1.4-2.5-3-3-5c-0.5-2-1.1-4.4-1.1-6.9s0.3-4.7,1.1-6.9
		c0.8-1.9,1.7-3.6,3-5c1.4-1.4,2.8-2.5,4.7-3c1.9-0.8,3.9-1.1,6.1-1.1c1.7,0,3.3,0.3,5,0.6c1.7,0.3,3.6,1.1,5.5,2.2v5h-0.3
		c-1.7-1.4-3.3-2.5-5-3c-1.7-0.5-3.3-1.1-5.2-1.1c-1.7,0-3,0.3-4.1,0.8c-1.1,0.6-2.5,1.4-3.3,2.2c-0.8,1.1-1.7,2.2-2.2,3.9
		c-0.5,1.7-0.8,3.3-0.8,5.5c0,2.2,0.3,4.1,0.8,5.5c0.5,1.4,1.4,2.8,2.2,3.9c0.8,1.1,2.2,1.7,3.3,2.2c1.4,0.6,2.8,0.8,4.1,0.8
		c1.9,0,3.9-0.3,5.5-1.1c1.7-0.6,3.3-1.7,5-3h0.3v5h-0.3V696.8z"/>
	<path fill="#4D4D4D" d="M557.9,699h-20.1v-30.9h20.1v3.6h-16.3v8.6h16.3v3.6h-16.3v11.3h16.3V699z"/>
	<path fill="#4D4D4D" d="M582.2,677.5c0,1.4-0.3,2.8-0.8,3.9c-0.6,1.1-1.1,2.2-1.9,3c-1.1,1.1-2.2,1.9-3.9,2.5
		c-1.4,0.6-3.3,0.8-5.5,0.8H566v11.6h-4.1v-31.2h8.3c1.9,0,3.3,0.3,4.7,0.6c1.4,0.3,2.5,0.8,3.3,1.4c1.1,0.8,2.2,1.7,2.8,3
		C582,674.2,582.2,675.6,582.2,677.5z M577.8,677.5c0-1.1-0.3-1.9-0.6-2.8c-0.3-0.8-0.8-1.4-1.7-1.9c-0.6-0.6-1.4-0.8-2.2-0.8
		c-0.8,0-1.9-0.3-3.3-0.3h-4v12.4h3.3c1.7,0,3-0.3,4.1-0.6c1.1-0.3,1.9-0.8,2.5-1.4c0.6-0.6,1.1-1.4,1.4-2.2
		C577.8,679.2,577.8,678.6,577.8,677.5z"/>
	<path fill="#4D4D4D" d="M607.3,671.7h-11v27h-4.1v-27h-11v-3.6h25.9v3.6H607.3z"/>
	<path fill="#4D4D4D" d="M629.4,699h-20.1v-30.9h20.1v3.6h-16.3v8.6h16.3v3.6h-16.3v11.3h16.3V699z"/>
	<path fill="#4D4D4D" d="M659.5,683.6c0,2.8-0.6,5.2-1.9,7.7c-1.1,2.2-2.8,4.1-5,5.2c-1.4,0.8-3,1.4-4.7,1.9
		c-1.7,0.6-4.1,0.6-6.9,0.6h-7.7v-30.9h7.7c3,0,5.5,0.3,7.2,0.6c1.7,0.3,3.3,1.1,4.4,1.7c2.2,1.4,3.6,3,5,5.2
		C658.9,677.8,659.5,680.5,659.5,683.6z M655.4,683.6c0-2.5-0.6-4.4-1.4-6.1c-0.8-1.7-2.2-3-3.9-3.9c-1.1-0.8-2.5-1.1-3.9-1.4
		s-3-0.3-5-0.3h-3.9v23.7h3.9c1.9,0,3.6-0.3,5.2-0.6c1.7-0.3,2.8-0.8,4.1-1.7c1.7-1.1,2.8-2.2,3.3-3.9
		C655.1,688,655.4,685.8,655.4,683.6z"/>
	<path fill="#4D4D4D" d="M700.1,699H696v-15.2h-15.5V699h-4.1v-30.9h4.1v12.1H696v-12.1h4.1V699z"/>
	<path fill="#4D4D4D" d="M726.3,699h-20.1v-30.9h20.1v3.6H710v8.6h16.3v3.6H710v11.3h16.3V699z"/>
	<path fill="#4D4D4D" d="M756.1,699h-5.2l-10.2-12.1h-5.8V699h-4.1v-30.9h8.6c1.9,0,3.3,0,4.7,0.3c1.1,0.3,2.5,0.6,3.3,1.4
		c1.1,0.8,1.9,1.7,2.5,2.8c0.6,1.1,0.8,2.5,0.8,4.1c0,2.2-0.6,4.1-1.7,5.5s-2.8,2.5-4.7,3.3L756.1,699z M746.4,677
		c0-0.8-0.3-1.7-0.6-2.2c-0.3-0.6-0.8-1.4-1.7-1.7c-0.6-0.3-1.4-0.6-2.2-0.8c-0.8-0.3-1.7-0.3-2.8-0.3h-4.7v11.3h4.1
		c1.4,0,2.5,0,3.3-0.3c0.8-0.3,1.7-0.6,2.5-1.4c0.6-0.6,1.1-1.1,1.4-1.9C746.4,678.9,746.4,678.1,746.4,677z"/>
	<path fill="#4D4D4D" d="M778.1,699H758v-30.9h20.1v3.6h-16.3v8.6h16.3v3.6h-16.3v11.3h16.3V699z"/>
</g>
</svg>
